<svg xmlns="http://www.w3.org/2000/svg" id="Layer_1" viewBox="0 0 461.9 85"><defs><style>.cls-1,.cls-2{fill:#006496;stroke-width:0}.cls-2{fill:#7ac143}</style></defs><path d="M61.4 27.8v45.8c0 2.3-1.9 4.1-4.1 4.1H10a4.1 4.1 0 0 1-4-4.1V26.4a4 4 0 0 1 4-4.1h33.8c1.8-2 3.7-4 5.8-6H10A10 10 0 0 0 0 26.4v47.2a10 10 0 0 0 10 10h47.3a10 10 0 0 0 10-10V26.4c0-1.6-.3-3-1-4.4a113 113 0 0 0-5 5.8Z" class="cls-2"/><path d="M28.3 73.1s-2.8-25-15.2-34.5c3.5-3.2 6.6-3.3 9.1-2.6 2.8 1.4 7.2 5 11.3 12.2C43.7 17.9 81 0 81 0l2.4.7c-17 12-39 34-43.6 60.8C33.4 65.8 28.3 73 28.3 73ZM97 67c1.2 0 2.1 0 2.9-.2a10 10 0 0 0 2-.6l1.5-.9 1-.8 1-.7.8-.2.8.1.5.4 3.3 4c-1.8 2.3-4 4-6.6 5.1S98.7 75 95.4 75c-2.7 0-5.1-.5-7.2-1.5a14 14 0 0 1-5.3-4 17 17 0 0 1-3.3-5.9 28.8 28.8 0 0 1 2-20.5 23.6 23.6 0 0 1 8.4-8.9 22.4 22.4 0 0 1 16.1-2.8c1.3.3 2.5.7 3.6 1.3a13.6 13.6 0 0 1 5.1 4.4l-3.4 4-.8.6c-.3.3-.7.4-1.2.4-.4 0-.7-.1-1-.3a91.1 91.1 0 0 0-3-2 9 9 0 0 0-4.2-.9 11.4 11.4 0 0 0-9.1 4.5 15 15 0 0 0-2.7 5.2 22.5 22.5 0 0 0-.4 11.7 10 10 0 0 0 1.9 3.7 7.8 7.8 0 0 0 6.2 3Z" class="cls-1"/><path d="M123.7 75a12 12 0 0 1-4.8-.9 10.8 10.8 0 0 1-6.5-6.5c-.6-1.7-1-3.5-1-5.6a20.4 20.4 0 0 1 5-13.4c1.6-1.6 3.3-3 5.3-3.9a14.8 14.8 0 0 1 11.1-.5 11 11 0 0 1 6.5 6.6c.6 1.6 1 3.4 1 5.5a20.2 20.2 0 0 1-5 13.3 15.2 15.2 0 0 1-11.6 5.4Zm.8-6.8c1 0 2-.4 2.7-1 .8-.6 1.5-1.4 2-2.5.6-1 1-2.3 1.4-3.8.3-1.4.4-3 .4-4.5 0-2.3-.3-3.9-.9-4.8-.6-1-1.5-1.4-2.9-1.4-1 0-2 .3-2.7.9-.9.6-1.5 1.5-2.1 2.5a22.4 22.4 0 0 0-1.8 8.4c0 2.1.3 3.7 1 4.7.5 1 1.5 1.5 2.9 1.5Zm14.7 6.3 3.7-30.7h4.7c1 0 1.7.3 2.3.7.5.4.8 1.2.8 2.2v1.8c1.3-1.8 2.6-3 4-3.9 1.5-.8 3-1.3 4.6-1.3a6 6 0 0 1 4.3 1.7 8.4 8.4 0 0 1 2.2 5c1.4-2.3 2.9-4 4.5-5a9.4 9.4 0 0 1 5.4-1.7c1.2 0 2.2.2 3.2.7.9.4 1.7 1 2.3 1.7.7.8 1.2 1.8 1.6 3a13.2 13.2 0 0 1 .5 5l-.1 1.3-2.3 19.5h-9l2.3-19.5a19 19 0 0 0 0-1.7c0-1 0-1.7-.4-2.1-.3-.4-.8-.6-1.4-.6s-1.2.2-1.8.5-1 .8-1.6 1.4a20 20 0 0 0-2.5 5.2l-2 16.8h-9L158 55a19 19 0 0 0 0-1.7c0-1 0-1.7-.4-2.1-.3-.4-.8-.6-1.4-.6s-1.2.2-1.8.5a6 6 0 0 0-1.6 1.4c-.5.7-1 1.4-1.4 2.3a21 21 0 0 0-1 3l-2 16.7h-9Zm43 9.7 4.9-40.4h4.7c1 0 1.7.3 2.2.7.6.4.8 1.2.8 2.2v2.7c1.4-1.8 3-3.3 4.7-4.4a10.7 10.7 0 0 1 9-1c1 .5 2 1.2 2.7 2.1a12 12 0 0 1 1.7 3.6A23.6 23.6 0 0 1 209 69c-1.3 1.8-3 3.3-4.7 4.3s-3.7 1.7-5.7 1.7a9 9 0 0 1-6-2.3L191 84.2h-9Zm19.1-33.9c-.6 0-1.3.3-2 .7-.7.5-1.3 1.2-2 2a18.5 18.5 0 0 0-3.2 6.6l-.9 7.3c.6.5 1.2.8 2 1 .6.2 1.3.3 2 .3 1 0 2-.3 2.9-1 .9-.8 1.6-1.7 2.3-2.8a19 19 0 0 0 2-8.5c0-2-.2-3.4-.8-4.3-.6-.9-1.3-1.3-2.3-1.3Zm38.1 24.2h-5c-.5 0-1 0-1.4-.2l-.9-.6-.4-1-.2-1.1v-2.2c-1.2 1.7-2.6 3-4.2 4a9.2 9.2 0 0 1-5 1.5 7.6 7.6 0 0 1-6-2.7 10 10 0 0 1-1.8-3.4 14 14 0 0 1-.8-4.9 20.9 20.9 0 0 1 5.8-14.4 20.3 20.3 0 0 1 14.8-6.1c1.4 0 2.9 0 4.4.3s3 .5 4.4 1l-3.7 29.8Zm-13.5-6.8c.7 0 1.3-.2 2-.7s1.2-1.2 1.7-2l1.6-3.1a20 20 0 0 0 1.2-3.7l1-8.5h-.5c-1.5 0-2.8.3-4 1a10.5 10.5 0 0 0-5.2 6.7 16.2 16.2 0 0 0-.6 7.4c.2.7.4 1.3.7 1.7.2.4.6.7 1 1s.7.2 1.1.2Zm16.3 6.8 3.8-30.7h4.7c1 0 1.7.3 2.2.7.5.4.8 1.2.8 2.2v3.5c1.2-2.1 2.5-3.7 3.8-4.9a6.7 6.7 0 0 1 4.3-1.6c.9 0 1.7.1 2.5.5l-1.7 8.5c-1-.4-2-.7-2.9-.7-1.5 0-2.8.7-4 2a16.1 16.1 0 0 0-2.8 6.7l-1.7 13.8h-9Zm32.5-30.7-3.6 30.7h-9l3.6-30.7h9Zm1.8-8.4c0 .8-.2 1.4-.5 2a6 6 0 0 1-5 3.3c-.7 0-1.4 0-2-.4a5.7 5.7 0 0 1-2.9-2.8 5.1 5.1 0 0 1 1.2-5.8 6 6 0 0 1 1.7-1.2 5.3 5.3 0 0 1 5.8 1.1c.5.5.9 1 1.2 1.7.3.7.5 1.4.5 2.1Zm18.9 14.9-.8.8-1 .2-1.1-.3-1.3-.6-1.5-.6c-.5-.2-1.2-.3-2-.3-1.3 0-2.2.3-2.8.8s-.9 1.2-.9 2c0 .6.2 1 .5 1.4.3.4.8.7 1.3 1a37.5 37.5 0 0 1 6 2.7l1.8 1.4a6.8 6.8 0 0 1 1.8 4.9 10.6 10.6 0 0 1-3.6 8 13 13 0 0 1-4.1 2.4 15.7 15.7 0 0 1-13.3-1.4c-.7-.5-1.3-1-1.7-1.5l2.2-3.4 1-1c.3-.2.8-.3 1.3-.3s1 .1 1.3.4l1.1.7 1.5.8c.6.2 1.3.4 2.3.4 1.3 0 2.2-.3 2.9-1 .6-.5 1-1.2 1-2 0-.6-.2-1-.6-1.5-.3-.4-.7-.7-1.3-1l-1.8-.8a67.4 67.4 0 0 1-4-1.7c-.8-.3-1.4-.8-1.9-1.3-.5-.6-1-1.3-1.3-2-.3-.9-.5-1.9-.5-3 0-1.4.3-2.8.8-4.2.5-1.3 1.3-2.5 2.3-3.5s2.4-1.9 3.9-2.5c1.5-.6 3.3-1 5.4-1a13.2 13.2 0 0 1 9.4 3.7l-2.3 3.2Zm13 24.7c-1.7 0-3.3-.3-4.8-.9a11.1 11.1 0 0 1-6.4-6.5c-.6-1.7-1-3.5-1-5.6a20.4 20.4 0 0 1 5-13.4 17 17 0 0 1 5.3-3.9 14.8 14.8 0 0 1 11.1-.5 11 11 0 0 1 6.4 6.6c.7 1.6 1 3.4 1 5.5a20.2 20.2 0 0 1-5 13.3c-1.5 1.7-3.2 3-5.2 4s-4.1 1.4-6.4 1.4Zm.9-6.8c1 0 1.9-.4 2.7-1 .8-.6 1.5-1.4 2-2.5.6-1 1-2.3 1.4-3.8.3-1.4.4-3 .4-4.5 0-2.3-.3-3.9-.9-4.8-.6-1-1.6-1.4-3-1.4-1 0-1.9.3-2.7.9-.8.6-1.5 1.5-2 2.5s-1 2.3-1.3 3.8c-.3 1.4-.5 3-.5 4.6 0 2.1.3 3.7 1 4.7.5 1 1.5 1.5 2.9 1.5Zm32.6 6.3 2.3-19.5a17.3 17.3 0 0 0 .1-1.6 4 4 0 0 0-.5-2.2c-.4-.4-1-.6-1.7-.6-.6 0-1.3.2-2 .6-.8.4-1.5 1-2.2 1.8a15.8 15.8 0 0 0-3.1 6.3l-1.7 15.2H324l3.6-30.7h4.8c1 0 1.7.2 2.2.7.5.4.8 1.1.8 2.1v2.5c1.5-2 3-3.4 4.8-4.4s3.6-1.4 5.5-1.4a8 8 0 0 1 3.1.7c1 .4 1.8 1 2.5 1.8s1.2 1.8 1.6 3a12.6 12.6 0 0 1 .6 5l-.1 1.2-2.3 19.5h-9.2Zm32.6-24.2-.8.8-1 .2c-.4 0-.7-.1-1.1-.3l-1.3-.6-1.5-.6c-.5-.2-1.2-.3-2-.3-1.3 0-2.3.3-2.8.8s-.9 1.2-.9 2c0 .6.2 1 .5 1.4.3.4.7.7 1.3 1a37.5 37.5 0 0 1 6 2.7l1.8 1.4a6.8 6.8 0 0 1 1.8 4.9 10.6 10.6 0 0 1-3.6 8 13 13 0 0 1-4.1 2.4 15.7 15.7 0 0 1-13.4-1.4l-1.6-1.5 2.2-3.4 1-1c.3-.2.8-.3 1.3-.3s1 .1 1.3.4l1.1.7 1.5.8c.6.2 1.3.4 2.3.4 1.3 0 2.2-.3 2.9-1 .6-.5 1-1.2 1-2 0-.6-.2-1-.6-1.5-.3-.4-.7-.7-1.3-1l-1.8-.8a67.4 67.4 0 0 1-4.1-1.7 6 6 0 0 1-1.8-1.3c-.5-.6-1-1.3-1.3-2-.3-.9-.5-1.9-.5-3 0-1.4.3-2.8.8-4.2a11 11 0 0 1 6.2-6 14.4 14.4 0 0 1 10.8.1c1.6.7 3 1.6 4 2.6l-2.3 3.2Z" class="cls-1"/><path d="M374.4 69.8c0-.7.1-1.3.4-2 .2-.5.6-1 1-1.5a5.3 5.3 0 0 1 8.6 1.6c.3.6.4 1.2.4 2s-.2 1.3-.4 2a5 5 0 0 1-2.8 2.6c-.6.3-1.3.4-2 .4s-1.5-.2-2.1-.4a4.9 4.9 0 0 1-2.7-2.7 5 5 0 0 1-.4-2ZM397 75c-1.7 0-3.3-.3-4.8-.9a11.1 11.1 0 0 1-6.5-6.5 20.4 20.4 0 0 1 4-19c1.6-1.6 3.3-3 5.3-3.9a14.8 14.8 0 0 1 11.1-.5 11 11 0 0 1 6.5 6.6c.6 1.6 1 3.4 1 5.5a20.2 20.2 0 0 1-5 13.3c-1.5 1.7-3.3 3-5.3 4-2 .9-4 1.4-6.3 1.4Zm.8-6.8c1 0 2-.4 2.8-1 .8-.6 1.4-1.4 2-2.5a22.2 22.2 0 0 0 1.8-8.3c0-2.3-.3-3.9-1-4.8-.5-1-1.5-1.4-2.9-1.4-1 0-2 .3-2.7.9-.8.6-1.5 1.5-2 2.5s-1 2.3-1.4 3.8c-.3 1.4-.4 3-.4 4.6 0 2.1.3 3.7.9 4.7.6 1 1.6 1.5 3 1.5Zm14.7 6.3 3.7-30.7h4.8c1 0 1.7.3 2.2.7.5.4.8 1.2.8 2.2v3.5c1.2-2.1 2.5-3.7 3.8-4.9a6.7 6.7 0 0 1 4.3-1.6c.9 0 1.7.1 2.5.5l-1.7 8.5c-1-.4-2-.7-2.8-.7a5 5 0 0 0-4 2 16.1 16.1 0 0 0-3 6.7l-1.6 13.8h-9Z" class="cls-2"/><path d="M457.3 53c0 1.3-.1 2.3-.5 3.2-.3 1-.7 1.7-1.1 2.5l-1.2 2.4a7.5 7.5 0 0 0 0 5.2 66.9 66.9 0 0 0 1.7 4.3 10.2 10.2 0 0 1-3.6 10.9 15 15 0 0 1-4.9 2.5c-1.9.7-4 1-6.5 1-2 0-3.7-.2-5.3-.6-1.6-.5-3-1-4-1.7a8 8 0 0 1-2.5-2.6 7 7 0 0 1 .4-7.5c.9-1 2-2 3.4-2.7 1.3-.7 2.9-1.2 4.5-1.5a28.7 28.7 0 0 1 9.8 0V67c0-1 .2-2.2.7-3.6a7 7 0 0 1-2.6 1.2 13 13 0 0 1-7 0 8.8 8.8 0 0 1-4.8-4.7 11.9 11.9 0 0 1 2.7-12.6 13 13 0 0 1 4.3-2.8 15.8 15.8 0 0 1 9.3-.6c1 .2 2 .6 3 1.2h8.8l-.4 2.8c-.2 1.2-.8 2-1.8 2.3l-2.6.9c.2.6.2 1.3.2 2Zm-9 21v-.3l-.1-.3a38 38 0 0 0-5-.5c-1.1 0-2 .1-2.8.3-.7.1-1.4.3-1.8.6-.5.3-.9.6-1 1-.3.3-.4.7-.4 1 0 1 .4 1.9 1 2.4s2 .7 3.8.7c1 0 1.8 0 2.5-.3s1.5-.6 2-1a4.2 4.2 0 0 0 1.7-3.5Zm-3.7-14.3c.7 0 1.3-.2 1.9-.6.5-.4 1-.8 1.3-1.4s.7-1.3.9-2l.3-2.3c0-1.3-.3-2.3-.9-3-.5-.7-1.3-1-2.4-1-.7 0-1.4 0-2 .4-.5.4-.9.8-1.3 1.4-.3.6-.6 1.2-.7 2l-.3 2.3c0 1.3.3 2.3.8 3 .5.8 1.3 1.2 2.4 1.2Zm-294-30.4-1.3 10h-5.9l3.3-26.6h8c1.7 0 3 .1 4.2.5a8 8 0 0 1 2.8 1.4c.8.6 1.3 1.4 1.6 2.2.4.8.5 1.7.5 2.7a9.6 9.6 0 0 1-1.5 5.2c-.5.7-1.1 1.4-1.8 2L158 28l1 .7c.4.3.6.7.8 1.1l3.9 9.4h-5.4c-.5 0-1-.1-1.3-.3-.3-.2-.5-.5-.7-.9l-2.9-7.8c0-.4-.3-.6-.5-.8a2 2 0 0 0-1-.2h-1.3Zm1.5-12.2-1 8.1h2.2c.8 0 1.5-.1 2.1-.4a3.9 3.9 0 0 0 2.3-2.5 7 7 0 0 0 .2-1.9c0-.5 0-1-.2-1.3s-.4-.8-.7-1c-.3-.4-.7-.6-1.2-.8l-1.6-.2h-2.1Z" class="cls-2"/><path d="M180 25c0 .8-.1 1.6-.5 2.4-.3.7-1 1.3-1.8 1.9-.8.5-2 1-3.4 1.4-1.4.4-3.2.7-5.4.9 0 1.3.3 2.2.9 2.8a3 3 0 0 0 2.4 1 5.5 5.5 0 0 0 2.2-.5l.8-.5a34.4 34.4 0 0 1 1.2-.7l.8-.2.5.2c.2 0 .3.2.5.3l1.4 1.7c-.6.7-1.3 1.3-2 1.8l-1.9 1.2-2.1.6c-.7.1-1.6.3-2.5.3a8 8 0 0 1-3.1-.6 7 7 0 0 1-4-4.2c-.4-1-.6-2-.6-3.3a12.7 12.7 0 0 1 2.9-8 10.2 10.2 0 0 1 4.5-3 9.4 9.4 0 0 1 5.6 0c.8.3 1.5.7 2 1.1A4.5 4.5 0 0 1 180 25Zm-6.6-1.1c-1 0-1.8.4-2.5 1.1a7 7 0 0 0-1.6 3.1l2.9-.6a7 7 0 0 0 1.7-.6c.4-.3.7-.5.8-.8l.2-.9-.3-.9c-.3-.2-.7-.4-1.2-.4Zm6.6-3.6h4.7c.4 0 .7.1 1 .3.2.2.3.4.3.7l1.3 8.5a42 42 0 0 1 .4 4.2l.8-2 .8-2.2 3.3-8.5c.1-.3.3-.5.6-.7l.9-.3h4.5l-9.2 19h-4.8l-4.6-19Zm25.1 0-2.3 19h-5.6l2.3-19h5.6Zm1-5.1c0 .4 0 .8-.2 1.2-.2.4-.5.8-.8 1a3.6 3.6 0 0 1-2.3 1 3 3 0 0 1-1.3-.2 3.5 3.5 0 0 1-1.7-1.8l-.3-1.2a3.3 3.3 0 0 1 1-2.4l1-.7 1.3-.3a3.3 3.3 0 0 1 2.3 1l.8 1c.2.5.3.9.3 1.4ZM222 25c0 .8-.2 1.6-.5 2.4-.3.7-1 1.3-1.8 1.9-.8.5-2 1-3.4 1.4-1.4.4-3.2.7-5.4.9 0 1.3.3 2.2.9 2.8a3 3 0 0 0 2.4 1 5.5 5.5 0 0 0 2.2-.5l.8-.5a34.4 34.4 0 0 1 1.2-.7l.8-.2.5.2c.2 0 .3.2.5.3l1.4 1.7c-.6.7-1.3 1.3-2 1.8l-2 1.2a12.9 12.9 0 0 1-4.6.9 8 8 0 0 1-3-.6 7 7 0 0 1-4-4.2c-.4-1-.6-2-.6-3.3a12.7 12.7 0 0 1 2.9-8 10.2 10.2 0 0 1 4.5-3 9.4 9.4 0 0 1 5.6 0c.8.3 1.5.7 2 1.1A4.5 4.5 0 0 1 222 25Zm-6.6-1.1c-1 0-1.8.4-2.5 1.1a7 7 0 0 0-1.6 3.1l2.9-.6a7 7 0 0 0 1.7-.6l.8-.8.2-.9c0-.3-.1-.6-.4-.9-.2-.2-.6-.4-1.1-.4Zm6.8-3.6h4.3c.4 0 .7.1 1 .3.2.2.4.4.4.7l.5 8.5v.2a52.5 52.5 0 0 1 .2 3.4 58.8 58.8 0 0 1 1.4-3.6l3.2-8.5c0-.3.3-.5.6-.7.2-.2.5-.3.9-.3h2.4c.4 0 .7.1 1 .3l.4.7 1 8.5.3 1.8.2 1.8.6-1.7.6-1.9 2.7-8.5c0-.2.2-.5.5-.7l1-.2h4l-7.6 18.9h-4.5c-.2 0-.3 0-.5-.2l-.3-.8-1.4-9.4v-.8l-.2-.8c0 .3-.2.6-.3.8 0 .3-.2.6-.3.8l-3.6 9.4c-.2.7-.6 1-1.2 1h-4.2l-3.1-19Zm38.3 4a2 2 0 0 1-.5.5l-.5.1-.8-.1a25 25 0 0 1-1.7-.8 4 4 0 0 0-1.2-.1c-.8 0-1.4.1-1.8.5-.3.3-.5.7-.5 1.2 0 .3.1.6.3.8l.8.7 1.1.5a21.5 21.5 0 0 1 2.6 1.1l1.1 1c.3.3.6.7.8 1.2.2.5.3 1 .3 1.7a6.5 6.5 0 0 1-2.2 5 9 9 0 0 1-7.7 1.9l-1.7-.6-1.4-.7-1-1 1.4-2 .6-.6.8-.2c.3 0 .6 0 .8.2l.7.5.9.4c.4.2.8.3 1.4.3.8 0 1.4-.2 1.8-.6.4-.3.6-.8.6-1.3l-.3-.9-.8-.6-1.1-.5-1.3-.5-1.3-.5-1.1-.9-.8-1.3c-.2-.5-.3-1-.3-1.8s.2-1.7.5-2.5c.3-.9.8-1.6 1.4-2.2.7-.7 1.5-1.2 2.4-1.6s2-.5 3.3-.5a8.2 8.2 0 0 1 5.9 2.2l-1.5 2Z" class="cls-2"/></svg>